# xmcd
#
# Track frame offsets: 
#        150
#        16191
#        35579
#        54896
#        79723
#        115761
#        145468
#        169000
#        186075
#        215868
#        238815
#        263409
#
# Disc length: 4222 seconds
#
# Revision: 2
# Processed by: cddbd v1.5.2PL0 Copyright (c) Steve Scherf et al.
# Submitted via: ExactAudioCopy v0.95b4
#
DISCID=9f107c0c
DTITLE=Artistes Divers (Cabrel, Personne, Verbeke) - Autour Du Blues D
DTITLE=2
DYEAR=2001
DGENRE=Blues
TTITLE0=Hesitation Blues
TTITLE1=Dust My Blues
TTITLE2=St James Infirmary
TTITLE3=Red River Blues
TTITLE4=Third Degree
TTITLE5=Worried Life Blues
TTITLE6=Reconsider Baby
TTITLE7=Unchain My Heart
TTITLE8=Pour Oublier Qu'on S'est Aimé
TTITLE9=Sarbacane
TTITLE10=Cocaïne
TTITLE11=Sweet Home Chicago
EXTD=
EXTT0=
EXTT1=
EXTT2=
EXTT3=
EXTT4=
EXTT5=
EXTT6=
EXTT7=
EXTT8=
EXTT9=
EXTT10=
EXTT11=
PLAYORDER=
